<mxfile host="65bd71144e">
    <diagram id="fjN8D4Odn0497USpxgly" name="Page-1">
        <mxGraphModel dx="2543" dy="798" grid="1" gridSize="10" guides="1" tooltips="1" connect="1" arrows="1" fold="1" page="1" pageScale="1" pageWidth="1169" pageHeight="827" background="#FFFFFF" math="0" shadow="0">
            <root>
                <mxCell id="0"/>
                <mxCell id="1" parent="0"/>
                <mxCell id="281" value="" style="rounded=0;whiteSpace=wrap;html=1;" parent="1" vertex="1">
                    <mxGeometry x="-800" y="40" width="590" height="250" as="geometry"/>
                </mxCell>
                <mxCell id="275" value="LwM2M Server" style="points=[];aspect=fixed;html=1;align=center;shadow=0;dashed=0;image;image=img/lib/allied_telesis/storage/Datacenter_Server_Half_Rack_ToR.svg;" parent="1" vertex="1">
                    <mxGeometry x="-1130" y="90" width="88.2" height="114.6" as="geometry"/>
                </mxCell>
                <mxCell id="276" value="set 3420/0/0 to #ff00ff" style="edgeStyle=elbowEdgeStyle;rounded=0;html=1;" parent="1" source="275" target="280" edge="1">
                    <mxGeometry relative="1" as="geometry">
                        <mxPoint x="-950" y="-130" as="sourcePoint"/>
                        <mxPoint x="-920" y="147.29999999999995" as="targetPoint"/>
                    </mxGeometry>
                </mxCell>
                <mxCell id="283" value="" style="endArrow=none;html=1;" parent="1" source="280" edge="1">
                    <mxGeometry width="50" height="50" relative="1" as="geometry">
                        <mxPoint x="-920" y="110" as="sourcePoint"/>
                        <mxPoint x="-810" y="50" as="targetPoint"/>
                    </mxGeometry>
                </mxCell>
                <mxCell id="280" value="LwM2M Client" style="sketch=0;outlineConnect=0;strokeColor=#9673a6;fillColor=none;dashed=0;verticalLabelPosition=bottom;verticalAlign=top;align=center;html=1;fontSize=12;fontStyle=0;aspect=fixed;shape=mxgraph.aws4.resourceIcon;resIcon=mxgraph.aws4.generic;" parent="1" vertex="1">
                    <mxGeometry x="-910" y="117.30000000000001" width="60" height="60" as="geometry"/>
                </mxCell>
                <mxCell id="284" value="" style="endArrow=none;html=1;" parent="1" source="280" edge="1">
                    <mxGeometry width="50" height="50" relative="1" as="geometry">
                        <mxPoint x="-848.4172661870502" y="127.29999999999995" as="sourcePoint"/>
                        <mxPoint x="-810" y="80" as="targetPoint"/>
                    </mxGeometry>
                </mxCell>
                <mxCell id="285" value="" style="endArrow=none;html=1;" parent="1" source="280" edge="1">
                    <mxGeometry width="50" height="50" relative="1" as="geometry">
                        <mxPoint x="-840" y="128.4571428571428" as="sourcePoint"/>
                        <mxPoint x="-810" y="160" as="targetPoint"/>
                    </mxGeometry>
                </mxCell>
                <mxCell id="286" value="" style="endArrow=none;html=1;" parent="1" source="280" edge="1">
                    <mxGeometry width="50" height="50" relative="1" as="geometry">
                        <mxPoint x="-830" y="138.4571428571428" as="sourcePoint"/>
                        <mxPoint x="-810" y="190" as="targetPoint"/>
                    </mxGeometry>
                </mxCell>
                <mxCell id="287" value="" style="endArrow=none;html=1;" parent="1" source="280" edge="1">
                    <mxGeometry width="50" height="50" relative="1" as="geometry">
                        <mxPoint x="-820" y="148.4571428571428" as="sourcePoint"/>
                        <mxPoint x="-810" y="230" as="targetPoint"/>
                    </mxGeometry>
                </mxCell>
                <mxCell id="288" value="" style="endArrow=none;html=1;" parent="1" source="280" edge="1">
                    <mxGeometry width="50" height="50" relative="1" as="geometry">
                        <mxPoint x="-810" y="158.4571428571428" as="sourcePoint"/>
                        <mxPoint x="-810" y="280" as="targetPoint"/>
                    </mxGeometry>
                </mxCell>
                <mxCell id="289" value="" style="endArrow=none;html=1;" parent="1" source="280" edge="1">
                    <mxGeometry width="50" height="50" relative="1" as="geometry">
                        <mxPoint x="-800" y="168.4571428571428" as="sourcePoint"/>
                        <mxPoint x="-810" y="110" as="targetPoint"/>
                    </mxGeometry>
                </mxCell>
                <mxCell id="290" value="" style="endArrow=none;html=1;" parent="1" source="280" edge="1">
                    <mxGeometry width="50" height="50" relative="1" as="geometry">
                        <mxPoint x="-790" y="178.4571428571428" as="sourcePoint"/>
                        <mxPoint x="-810" y="140" as="targetPoint"/>
                    </mxGeometry>
                </mxCell>
                <mxCell id="291" value="convert to integers, and then call registry with integers etc. pp TODO" style="rounded=0;whiteSpace=wrap;html=1;" parent="1" vertex="1">
                    <mxGeometry x="-630" y="70" width="220" height="60" as="geometry"/>
                </mxCell>
                <mxCell id="293" value="COAP 404" style="edgeStyle=elbowEdgeStyle;rounded=0;html=1;startArrow=none;" edge="1" parent="1" source="297" target="275">
                    <mxGeometry x="0.1449" relative="1" as="geometry">
                        <mxPoint x="-720" y="190" as="targetPoint"/>
                        <mxPoint as="offset"/>
                        <Array as="points">
                            <mxPoint x="-820" y="330"/>
                        </Array>
                    </mxGeometry>
                </mxCell>
                <mxCell id="294" value="Found &lt;br&gt;object&lt;br&gt;3420" style="rhombus;whiteSpace=wrap;html=1;" vertex="1" parent="1">
                    <mxGeometry x="-760" y="60" width="80" height="80" as="geometry"/>
                </mxCell>
                <mxCell id="297" value="No" style="text;html=1;align=center;verticalAlign=middle;resizable=0;points=[];autosize=1;strokeColor=none;fillColor=none;" vertex="1" parent="1">
                    <mxGeometry x="-735" y="150" width="30" height="20" as="geometry"/>
                </mxCell>
                <mxCell id="298" value="" style="edgeStyle=elbowEdgeStyle;rounded=0;html=1;endArrow=none;" edge="1" parent="1" source="294" target="297">
                    <mxGeometry x="0.1449" relative="1" as="geometry">
                        <mxPoint x="-1085.9" y="204.5999999999999" as="targetPoint"/>
                        <mxPoint as="offset"/>
                        <mxPoint x="-720" y="140" as="sourcePoint"/>
                        <Array as="points"/>
                    </mxGeometry>
                </mxCell>
                <mxCell id="299" value="Yes" style="edgeStyle=elbowEdgeStyle;rounded=0;html=1;" edge="1" parent="1" source="294" target="291">
                    <mxGeometry x="-0.2" relative="1" as="geometry">
                        <mxPoint x="-620" y="-130" as="targetPoint"/>
                        <mxPoint as="offset"/>
                        <mxPoint x="-660" y="-130" as="sourcePoint"/>
                    </mxGeometry>
                </mxCell>
            </root>
        </mxGraphModel>
    </diagram>
</mxfile>